<svg xmlns="http://www.w3.org/2000/svg" viewBox="0 0 1920 1080"><g transform="
          rotate(0 960 540) 
          translate(-0 -0)
          scale(1)
        "><rect width="1920" height="1080" fill="rgb(123, 79, 227)"></rect><g transform="translate(0, 0)"><path fill="rgb(92, 70, 191)" fill-opacity="1" d="M0,264.707L53.333,262.556C106.667,260.405,213.333,256.103,320,255.436C426.667,254.769,533.333,257.737,640,258.071C746.667,258.405,853.333,256.104,960,227.387C1066.667,198.67,1173.333,143.537,1280,138.881C1386.667,134.225,1493.333,180.045,1600,166.002C1706.667,151.959,1813.333,78.052,1866.667,41.098L1920,4.145L1920,1080L1866.667,1080C1813.333,1080,1706.667,1080,1600,1080C1493.333,1080,1386.667,1080,1280,1080C1173.333,1080,1066.667,1080,960,1080C853.333,1080,746.667,1080,640,1080C533.333,1080,426.667,1080,320,1080C213.333,1080,106.667,1080,53.333,1080L0,1080Z"></path></g><g transform="translate(0, 270)"><path fill="rgb(62, 61, 156)" fill-opacity="1" d="M0,200.718L53.333,184.276C106.667,167.835,213.333,134.953,320,104.517C426.667,74.081,533.333,46.091,640,60.539C746.667,74.987,853.333,131.872,960,142.129C1066.667,152.386,1173.333,116.015,1280,97.811C1386.667,79.606,1493.333,79.568,1600,105.956C1706.667,132.344,1813.333,185.158,1866.667,211.565L1920,237.972L1920,810L1866.667,810C1813.333,810,1706.667,810,1600,810C1493.333,810,1386.667,810,1280,810C1173.333,810,1066.667,810,960,810C853.333,810,746.667,810,640,810C533.333,810,426.667,810,320,810C213.333,810,106.667,810,53.333,810L0,810Z"></path></g><g transform="translate(0, 540)"><path fill="rgb(31, 52, 120)" fill-opacity="1" d="M0,249.72L53.333,215.464C106.667,181.208,213.333,112.697,320,84.467C426.667,56.237,533.333,68.289,640,94.704C746.667,121.12,853.333,161.899,960,190.747C1066.667,219.596,1173.333,236.513,1280,225.386C1386.667,214.259,1493.333,175.089,1600,135.235C1706.667,95.38,1813.333,54.842,1866.667,34.573L1920,14.304L1920,540L1866.667,540C1813.333,540,1706.667,540,1600,540C1493.333,540,1386.667,540,1280,540C1173.333,540,1066.667,540,960,540C853.333,540,746.667,540,640,540C533.333,540,426.667,540,320,540C213.333,540,106.667,540,53.333,540L0,540Z"></path></g><g transform="translate(0, 810)"><path fill="rgb(0, 43, 84)" fill-opacity="1" d="M0,2.007L53.333,28.76C106.667,55.513,213.333,109.018,320,125.837C426.667,142.655,533.333,122.785,640,102.133C746.667,81.481,853.333,60.047,960,54.191C1066.667,48.336,1173.333,58.059,1280,64.956C1386.667,71.853,1493.333,75.924,1600,99.792C1706.667,123.66,1813.333,167.326,1866.667,189.159L1920,210.992L1920,270L1866.667,270C1813.333,270,1706.667,270,1600,270C1493.333,270,1386.667,270,1280,270C1173.333,270,1066.667,270,960,270C853.333,270,746.667,270,640,270C533.333,270,426.667,270,320,270C213.333,270,106.667,270,53.333,270L0,270Z"></path></g></g></svg>